<svg width="42" height="37" viewBox="0 0 42 37" fill="none" xmlns="http://www.w3.org/2000/svg">
    <path d="M36.8748 11.3799V14.9412L37.0466 15.3612L36.8748 15.431V21.7102L39.2431 20.7441L39.7627 22.0152C39.9914 22.5774 39.7336 23.2165 39.1875 23.4401L10.6011 35.1088C10.0602 35.3298 9.41787 35.0416 9.19363 34.4936L8.67472 33.2218L30.5516 24.2918H15.1698L6.47825 27.8395L5.03009 24.2912H3.57611L7.94838 35.0015C8.32771 35.9308 9.21431 36.5311 10.2082 36.5311C10.5184 36.5311 10.8227 36.4716 11.1109 36.354L39.6968 24.6854C40.9297 24.1813 41.5184 22.7558 41.0086 21.506L36.8748 11.3799Z" fill="black"/>
    <path d="M28.993 14.7544V13.8892L28.4908 14.7544H28.993Z" fill="black"/>
    <path d="M11.6389 13.8892L11.1381 14.7544H11.6389V13.8892Z" fill="black"/>
    <path d="M14.9262 15.1277C14.9766 15.0618 15.0012 14.9765 15.0012 14.8705C15.0012 14.7535 14.9728 14.6637 14.9152 14.601C14.8577 14.5383 14.7879 14.5073 14.7046 14.5073C14.6374 14.5073 14.5773 14.528 14.5262 14.5687C14.4487 14.6288 14.4099 14.7257 14.4099 14.8595C14.4099 14.9674 14.439 15.056 14.4972 15.1238C14.5553 15.1923 14.6296 15.2266 14.7188 15.2266C14.8067 15.2266 14.8758 15.193 14.9262 15.1277Z" fill="black"/>
    <path d="M5.7836 19.9868C5.85856 19.9868 5.929 19.9655 5.99297 19.9209C6.05694 19.8783 6.0899 19.7988 6.09184 19.6818V19.5532C6.06922 19.5668 6.04725 19.5784 6.02463 19.5868C6.00266 19.5952 5.971 19.6023 5.93158 19.6101L5.85274 19.625C5.77843 19.6372 5.72544 19.6534 5.69248 19.6721C5.6382 19.7038 5.61041 19.7529 5.61041 19.8195C5.61041 19.8789 5.62721 19.9203 5.66017 19.9468C5.69442 19.9739 5.73578 19.9868 5.7836 19.9868Z" fill="black"/>
    <path d="M19.4316 15.2243C19.5214 15.2243 19.5931 15.1972 19.6442 15.1429C19.6952 15.0886 19.7211 15.0111 19.7211 14.9129C19.7211 14.8108 19.6946 14.7326 19.6429 14.6796C19.5899 14.6259 19.5201 14.6001 19.4316 14.6001C19.3431 14.6001 19.2726 14.6266 19.2203 14.6796C19.1679 14.7326 19.1421 14.8101 19.1421 14.9129C19.1421 15.0117 19.1679 15.0886 19.219 15.1429C19.27 15.1972 19.3418 15.2243 19.4316 15.2243Z" fill="black"/>
    <path d="M9.50448 19.1226C9.41531 19.1226 9.34681 19.1471 9.29769 19.1975C9.24858 19.2479 9.21821 19.3171 9.20593 19.403H9.80174C9.79592 19.31 9.76491 19.2408 9.70998 19.193C9.6544 19.1458 9.58591 19.1226 9.50448 19.1226Z" fill="black"/>
    <path d="M21.0064 13.7998C20.9392 13.7998 20.8817 13.8185 20.8332 13.856C20.7576 13.9148 20.7195 14.0156 20.7195 14.1572C20.7195 14.2761 20.744 14.3652 20.7925 14.4253C20.841 14.4848 20.9153 14.5145 21.0154 14.5145C21.071 14.5145 21.1214 14.499 21.1692 14.4673C21.2591 14.4105 21.3037 14.3103 21.3037 14.1701C21.3037 14.0564 21.2778 13.9665 21.2248 13.9C21.1712 13.8328 21.0988 13.7998 21.0064 13.7998Z" fill="black"/>
    <path d="M19.431 14.2967C19.5117 14.2967 19.5738 14.2734 19.6177 14.2269C19.661 14.1804 19.6836 14.1216 19.6836 14.0479C19.6836 13.9684 19.661 13.9064 19.6177 13.8612C19.5738 13.8159 19.5111 13.7939 19.431 13.7939C19.3515 13.7939 19.2888 13.8159 19.2442 13.8612C19.199 13.9064 19.177 13.9684 19.177 14.0479C19.177 14.1203 19.199 14.1804 19.2442 14.2269C19.2888 14.2741 19.3515 14.2967 19.431 14.2967Z" fill="black"/>
    <path d="M13.7365 19.6254C13.6629 19.6377 13.6092 19.6539 13.5776 19.6726C13.5233 19.7043 13.4955 19.7534 13.4955 19.8199C13.4955 19.8794 13.5123 19.9208 13.5452 19.9473C13.5782 19.9737 13.6196 19.9873 13.6667 19.9873C13.7423 19.9873 13.8121 19.966 13.8761 19.9214C13.9401 19.8781 13.973 19.7993 13.975 19.6823V19.5537C13.953 19.5673 13.931 19.5789 13.9078 19.5873C13.8858 19.5957 13.8541 19.6028 13.8147 19.6106L13.7365 19.6254Z" fill="black"/>
    <path d="M19.5459 19.6254C19.4716 19.6371 19.4186 19.6539 19.3863 19.6726C19.332 19.7043 19.3043 19.7534 19.3043 19.8199C19.3043 19.8794 19.3211 19.9208 19.354 19.9473C19.387 19.9737 19.4283 19.9873 19.4762 19.9873C19.5511 19.9873 19.6216 19.966 19.6855 19.9214C19.7495 19.8781 19.7825 19.7993 19.7844 19.6823V19.5537C19.7624 19.5673 19.7398 19.5789 19.7172 19.5873C19.6952 19.5957 19.6636 19.6028 19.6241 19.6106L19.5459 19.6254Z" fill="black"/>
    <path d="M22.9909 19.1975C22.9411 19.2479 22.9114 19.3171 22.8985 19.403H23.495C23.4885 19.31 23.4568 19.2408 23.4019 19.193C23.3463 19.1458 23.2785 19.1226 23.197 19.1226C23.1079 19.1226 23.0394 19.1471 22.9909 19.1975Z" fill="black"/>
    <path d="M32.0721 15.2266C32.16 15.2266 32.2285 15.193 32.2789 15.1277C32.33 15.0618 32.3545 14.9765 32.3545 14.8705C32.3545 14.7535 32.3254 14.6637 32.2679 14.601C32.2111 14.5383 32.1413 14.5073 32.0573 14.5073C31.9901 14.5073 31.93 14.528 31.8796 14.5687C31.802 14.6288 31.7632 14.7257 31.7632 14.8595C31.7632 14.9674 31.7917 15.056 31.8505 15.1238C31.9086 15.1923 31.9836 15.2266 32.0721 15.2266Z" fill="black"/>
    <path d="M3.43076 15.0397C3.46824 15.1618 3.54643 15.2239 3.66339 15.2239C3.78036 15.2239 3.85726 15.1625 3.89409 15.0397C3.92576 14.935 3.94062 14.7812 3.94579 14.5964C3.94643 14.566 3.94967 14.5428 3.94967 14.5105C3.94967 14.2688 3.93157 14.0891 3.89538 13.9728C3.8592 13.8565 3.7823 13.7983 3.66469 13.7983C3.54708 13.7983 3.47018 13.8559 3.43205 13.9728C3.39328 14.0891 3.37518 14.2688 3.37518 14.5105C3.37518 14.6294 3.38035 14.7334 3.39069 14.8232C3.3978 14.9079 3.41137 14.9809 3.43076 15.0397Z" fill="black"/>
    <path d="M1.40616 22.8171C1.71892 22.9651 2.06529 23.0549 2.43299 23.0549H3.0708H4.52478H18.1986H33.5804H33.5985C34.255 23.0549 34.8489 22.788 35.2877 22.3583C35.7439 21.9098 36.0315 21.2849 36.0315 20.5909V15.776V12.8784V9.31579V2.46465C36.0315 1.77062 35.7439 1.14509 35.2877 0.697262C34.8483 0.267532 34.2544 0 33.5985 0H2.43363C1.09145 0 0 1.10631 0 2.46465V20.5909C0 21.5757 0.57836 22.4229 1.40616 22.8171ZM2.96999 14.5107C2.96999 14.1792 3.02169 13.9226 3.12443 13.743C3.22718 13.5627 3.40618 13.4729 3.66273 13.4729C3.91863 13.4729 4.09828 13.5633 4.20102 13.743C4.29472 13.9071 4.3406 14.1417 4.34836
                                    14.4312C4.34901 14.459 4.35547 14.4803 4.35547 14.51C4.35547 14.8415 4.30377 15.0968 4.20102 15.2758C4.09828 15.4548 3.91863 15.5446 3.66273 15.5446C3.40683 15.5446 3.22718 15.4554 3.12443 15.2758C3.07661 15.1931 3.04301 15.0897 3.01716 14.9747C2.98744 14.8409 2.96999 14.6884 2.96999 14.5107ZM21.8019 6.46406C21.8019 4.63269 23.2934 3.14188 25.1247 3.14188C25.8465 3.14188 26.5115 3.38033 27.0569 3.77323C27.6236 3.32024 28.3325 3.03784 29.1125 3.03784C29.7813 3.03784 30.4023 3.24011 30.9238 3.58389C31.3548 3.86693 31.7051 4.25143 31.9642 4.69796C32.2473 5.18585 32.4217 5.74482 32.4217 6.34838C32.4217
                                    8.17329 30.9367 9.65828 29.1125 9.65828C28.3971 9.65828 27.7393 9.425 27.1978 9.03792C26.6272 9.49802 25.9131 9.78623 25.1247 9.78623C24.052 9.78623 23.1079 9.26732 22.5004 8.47701C22.2252 8.12094 22.0229 7.71254 21.9111 7.26342C21.8458 7.00623 21.8019 6.74128 21.8019 6.46406ZM21.1764 19.2371C21.1466 19.1725 21.0898 19.1414 21.0045 19.1414C20.905 19.1414 20.839 19.1731 20.8048 19.2371C20.786 19.2733
                                    20.7776 19.3282 20.7776 19.3999V20.1967H20.4261V18.8746H20.7628V19.0678C20.8054 18.9993 20.8461 18.9502 20.8843 18.9211C20.9515 18.8694 21.0381 18.8429 21.1453 18.8429C21.2455 18.8429 21.3282 18.8642 21.3909 18.9095C21.44 18.9502 21.4794 19.0038 21.5046 19.0691C21.5505 18.9909 21.6061 18.9347 21.6739 18.8972C21.7457 18.8603 21.8245 18.8429 21.9124 18.8429C21.9706 18.8429 22.0287 18.8545 22.0849 18.8765C22.1418 18.8998 22.1929 18.9392 22.2387 18.996C22.2756 19.0426 22.3021 19.0988 22.3137 19.1666C22.3221 19.2106 22.326 19.2759 22.326 19.3624L22.3234 20.1974H21.9693V19.3534C21.9693 19.3036 21.9602 19.2623 21.9441 19.23C21.9137 19.1692 21.8575
                                     19.1376 21.7748 19.1376C21.6785 19.1376 21.6126 19.1776 21.5757 19.2571C21.5576 19.2985 21.5479 19.3502 21.5479 19.4083V20.1974H21.199V19.4083C21.2003 19.3301 21.1925 19.2726 21.1764 19.2371ZM21.2029 14.7692C21.1292 14.8131 21.0381 14.8357 20.9302 14.8357C20.7705 14.8357 20.629 14.7808 20.5049 14.6703C20.3809 14.5598 20.3188 14.4008 20.3188 14.1934C20.3188 13.9782 20.3809 13.8031 20.5056 13.67C20.6297 13.5362 20.7906 13.4696 20.9896 13.4696C21.2959 13.4696 21.5053 13.6047 21.619 13.8755C21.6843 14.0286 21.7153 14.2309 21.7153 14.481C21.7153 14.7239 21.6849 14.9262 21.6222 15.0884C21.5033 15.3979 21.2869 15.5524 20.9715 15.5524C20.8203 15.5524 20.6852 15.5078 20.5657
                                     15.4186C20.4455 15.3288 20.3763 15.1989 20.3589 15.0289H20.7518C20.7615 15.0878 20.7867 15.1356 20.8268 15.1731C20.8668 15.2105 20.9211 15.228 20.9896 15.228C21.1188 15.228 21.2106 15.1563 21.263 15.0115C21.292 14.932 21.3095 14.817 21.3166 14.6638C21.2823 14.711 21.2442 14.7453 21.2029
                                    14.7692ZM18.8422 14.216C18.8138 14.1404 18.7989 14.07 18.7989 14.0047C18.7989 13.858 18.8539 13.7339 18.9637 13.6305C19.0736 13.5278 19.2293 13.4767 19.4303 13.4767C19.6306 13.4767 19.7864 13.5278 19.8969 13.6305C20.0074 13.7333 20.0616 13.858 20.0616 14.0047C20.0616 14.07 20.0468 14.1404 20.0177 14.216C19.9893 14.291 19.9253 14.3562 19.8284 14.4118C19.9272 14.4667 20.0022 14.5404 20.0526 14.6315C20.1024 14.7233 20.1282 14.8247 20.1282 14.9378C20.1282 15.1071 20.0655 15.2512 19.9402 15.3695C19.8154 15.4878 19.6403 15.5472 19.4154 15.5472C19.1906 15.5472 19.0206 15.4878 18.9049 15.3695C18.7893 15.2512 18.7311 15.1071 18.7311 14.9378C18.7311 14.8254 18.7569 14.7233 18.808 14.6315C18.859 14.5404 18.9327 14.4713 19.0309 14.4254C18.9347 14.3614 18.8713 14.2916 18.8422 14.216ZM19.7288 19.1498C19.6901 19.1292 19.6345 19.1182 19.5602
                                     19.1182C19.4775 19.1182 19.418 19.1395 19.3844 19.1796C19.3592 19.2093 19.3437 19.25 19.3353 19.3011H19.0006C19.0083 19.1854 19.0406 19.0904 19.0981 19.0161C19.1899 18.8998 19.3476 18.841 19.5712 18.841C19.7166 18.841 19.8458 18.87 19.9595 18.9269C20.0726 18.9851 20.1289 19.0936 20.1289 19.2532V19.8607C20.1289 19.902 20.1295 19.9537 20.1314 20.0138C20.134 20.0584 20.1411 20.0894 20.1521 20.1062C20.1637 20.1217 20.1805 20.136 20.2038 20.1469V20.1974H19.8271C19.8161 20.1702 19.8096 20.1457 19.8057 20.1217C19.8019 20.0985 19.798 20.072 19.7961 20.0416C19.7476 20.094 19.6927 20.1379 19.63 20.1741C19.5557 20.2174 19.4704 20.2394 19.3754 20.2394C19.2545 20.2394 19.155 20.2045 19.0768 20.1373C18.998 20.0688 18.9586 19.9718 18.9586 19.8465C18.9586 19.6836 19.0219 19.566 19.1485 19.493C19.2177 19.4529 19.3204 19.4258 19.4549 19.4083L19.5731 19.3941C19.6377 19.3851 19.6836 19.376 19.712 19.3637C19.7618 19.3431 19.7864 19.3101 19.7864 19.2655C19.7857 19.208 19.7663 19.1699 19.7288 19.1498ZM18.3434 19.2306C18.3098 19.1628 18.2451 19.1285 18.1514 19.1285C18.0345 19.1285 17.955 19.1783 17.9111 19.2778C17.8884 19.3301 17.8775 19.3973 17.8775 19.4794V20.1961H17.5304V18.8739H17.8658V19.0671C17.9098 18.9999 17.9518 18.9495 17.9912 18.9204C18.0616 18.8668 18.1527 18.8403 18.2613 18.8403C18.3976 18.8403 18.5088 18.8758 18.5954 18.9482C18.6826 19.0193 18.7259 19.1389 18.7259 19.3043V20.1967H18.3712V19.3915C18.3712 19.3217
                                      18.3628 19.2681 18.3434 19.2306ZM16.4196 19.9324C16.4338 19.946 16.4752 19.9518 16.5463 19.9518C16.5572 19.9518 16.5682 19.9518 16.5805 19.9518C16.5921 19.9505 16.6038 19.9505 16.6154 19.9492V20.2083L16.4513 20.2142C16.2878 20.2193 16.176 20.1909 16.1159 20.1295C16.0771 20.0894 16.0571 20.028 16.0571 19.9453V19.1298H15.8723V18.8843H16.0571V18.514H16.4002V18.8843H16.6154V19.1298H16.4002V19.8303C16.3989 19.8852 16.4054 19.9188 16.4196 19.9324ZM16.4874 14.5953C16.4312 14.7194 16.3802 14.8726 16.3343 15.0522C16.2891 15.2319 16.2664 15.3805 16.2664 15.4962H15.8567C15.869 15.1356 15.9873 14.7621 16.2115 14.3724C16.3569 14.1314 16.4784 13.9633 16.576 13.8684H15.575L15.5802 13.5136H16.9986V13.8231C16.9392 13.8806 16.8571 13.9847 16.7517 14.1339C16.6464 14.2819 16.5579 14.4357 16.4874 14.5953ZM10.8441 15.0632V14.7188L11.5827 13.5H12.0266V14.755H12.2535V15.0638H12.026V15.4962H11.6396V15.0638L10.8441 15.0632ZM11.7475 18.4054H12.1216V19.8742H13.0166V20.1967H11.7475V18.4054ZM12.627 15.3941C12.5048 15.2913 12.4357 15.1459 12.4221 14.9579H12.815C12.8305 15.0438 12.8609 15.1097 12.9048 15.1563C12.9488 15.2028 13.0128 15.226 13.0974 15.226C13.195 15.226 13.27 15.1911 13.321 15.1227C13.3727 15.0548 13.3979 14.9676 13.3979 14.8635C13.3979 14.7614 13.3734 14.6742 13.3262 14.6037C13.2784 14.5333 13.2034 14.4978 13.1019 14.4978C13.0541 14.4978 13.0121 14.5036 12.9772 14.5159C12.9152 14.5378 12.8687 14.5792 12.837 14.6386L12.4829 14.6218L12.6237
                                      13.5123H13.7288V13.8477H12.9081L12.8364 14.2865C12.8977 14.2464 12.9443 14.2199 12.9792 14.2076C13.036 14.1863 13.1058 14.176 13.1879 14.176C13.354 14.176 13.4987 14.2315 13.6221 14.3433C13.7456 14.4551 13.807 14.6167 13.807 14.8306C13.807 15.016 13.7469 15.1815 13.6286 15.3281C13.5097 15.4742 13.332 15.5466 13.0942 15.5466C12.9061 15.5479 12.7491 15.4968 12.627 15.3941ZM13.92 19.1498C13.8813 19.1292 13.8257 19.1182 13.752 19.1182C13.6693 19.1182 13.6099 19.1395 13.5756 19.1796C13.5504 19.2093 13.5343 19.25 13.5265 19.3011H13.1924C13.2002 19.1854 13.2325 19.0904 13.29 19.0161C13.3818 18.8998 13.5401 18.841 13.763 18.841C13.9084 18.841 14.0377 18.87 14.1514 18.9269C14.2645 18.9851 14.3213 19.0936 14.3213 19.2532V19.8607C14.3213 19.902 14.322 19.9537 14.3239 20.0138C14.3265 20.0584 14.3336 20.0894 14.3446 20.1062C14.3562 20.1217 14.373 20.136 14.3963 20.1469V20.1974H14.0196C14.0092 20.1702 14.0021 20.1457 13.9976 20.1217C13.9937 20.0985 13.9905 20.072 13.9885 20.0416C13.9407 20.094 13.8845 20.1379 13.8225 20.1741C13.7475 20.2174 13.6629 20.2394 13.5679 20.2394C13.447 20.2394 13.3475 20.2045 13.2687 20.1373C13.1898 20.0688 13.1511 19.9718 13.1511 19.8465C13.1511 19.6836 13.2144 19.566 13.341 19.493C13.4102 19.4529 13.5129 19.4258 13.6473 19.4083L13.7662 19.3941C13.8309 19.3851 13.8768 19.376 13.9045 19.3637C13.953 19.3398 13.9782 19.3069 13.9782 19.2636C13.9769 19.208 13.9582 19.1699 13.92 19.1498ZM14.1533 15.2306C14.0596 15.0651 14.0131 14.8525
                                       14.0131 14.5902C14.0131 14.437 14.0196 14.3123 14.0325 14.216C14.0558 14.0448 14.1003 13.9026 14.1669 13.7889C14.2238 13.6919 14.2994 13.6137 14.3918 13.5549C14.4842 13.4955 14.5953 13.4658 14.7246 13.4658C14.9113 13.4658 15.06 13.5136 15.1711 13.6092C15.2823 13.7049 15.3443 13.8322 15.3585 13.9911H14.9663C14.9663 13.9588 14.954 13.9233 14.9281 13.8845C14.8861 13.8218 14.8215 13.7902 14.7356 13.7902C14.607 13.7902 14.5152 13.8619 14.4616 14.006C14.4318 14.0855 14.4118 14.2024 14.4002 14.3582C14.4493 14.3 14.5062 14.2574 14.5708 14.2309C14.6354 14.2037 14.7091 14.1908 14.7924 14.1908C14.9708 14.1908 15.1168 14.2516 15.2306 14.3724C15.3443 14.4939 15.4018 14.6483 15.4018 14.8364C15.4018 15.0244 15.3462 15.1892 15.2344 15.3327C15.1226 15.4761 14.9488 15.5479 14.7129 15.5479C14.4603 15.5479 14.2735 15.4425 14.1533 15.2306ZM15.354 19.7637C15.3217 19.7437 15.2008 19.7088 14.9908 19.6597C14.8409 19.6216 14.7349 19.5751 14.6735 19.5195C14.6121 19.4639 14.5811 19.3844 14.5811 19.2817C14.5811 19.1589 14.6289 19.0536 14.7252 18.9657C14.8215 18.8778 14.9572 18.8332 15.1311 18.8332C15.2965 18.8332 15.4315 18.8662 15.5356 18.9327C15.6403 18.9993 15.6997 19.1117 15.7152 19.2739H15.3689C15.3643 19.2306 15.3514 19.1944 15.3314 19.1686C15.2926 19.1221 15.228 19.0988 15.1369 19.0988C15.0613 19.0988 15.0076 19.1111 14.9753 19.1337C14.943 19.1576 14.9268 19.1854 14.9268 19.217C14.9268 19.2571 14.9443 19.2855 14.9779 19.303C15.0121 19.3217 15.1323 19.3534 15.3391 19.3986C15.4774 19.4316 15.5808 19.4801 15.6493 19.5466C15.7172 19.6132 15.7521 19.6952 15.7521 19.7954C15.7521 19.9266 15.7023 20.0332 15.6047 20.1166C15.5071 20.1993 15.3553 20.2406 15.1511 20.2406C14.9424 20.2406 14.7879 20.1974 14.689
                                        20.1088C14.5895 20.0209 14.5398 19.9091 14.5398 19.7728H14.8913C14.8991 19.8342 14.9146 19.8775 14.9391 19.9033C14.9818 19.9505 15.0619 19.9731 15.1789 19.9731C15.2474 19.9731 15.3016 19.9628 15.3417 19.9427C15.3818 19.9234 15.4025 19.8923 15.4025 19.8516C15.4025 19.8148 15.3869 19.7844 15.354 19.7637ZM9.33518 19.9117C9.38881 19.9447 9.45149 19.9615 9.52645 19.9615C9.60529 19.9615 9.66927 19.9415 9.71903 19.9007C9.74617 19.8794 9.76943 19.8484 9.79011 19.8083H10.1436C10.1339 19.8872 10.0912 19.9667 10.0143 20.0481C9.89609 20.1767 9.73001 20.2413 9.51612 20.2413C9.3397 20.2413 9.18396 20.187 9.04955 20.0784C8.91514 19.9699 8.84729 19.7935 8.84729 19.5486C8.84729 19.3192 8.90803 19.1434 9.03016 19.0206C9.15165 18.8991 9.30933 18.8377 9.50384 18.8377C9.61886 18.8377 9.7229 18.8584 9.81531 18.8998C9.90772 18.9398 9.98397 19.0057 10.0441 19.0956C10.0984 19.1744 10.1332 19.2662 10.15 19.3689C10.1597 19.4309 10.1636 19.5182 10.1617 19.6326H9.19689C9.20141 19.7637 9.24858 19.8574 9.33518 19.9117ZM9.0153 14.0254C9.0153 14.1443 8.98041 14.2438 8.90997 14.3252C8.86603 14.3763 8.8195 14.4105 8.77168 14.4293C8.80787 14.4293 8.85892 14.4596 8.92612 14.5223C9.02693 14.616 9.07669 14.7427 9.07669 14.9049C9.07669 15.0742 9.01789 15.2241 8.90028 15.3533C8.78266 15.4819 8.60819 15.5459 8.37814 15.5459C8.09445 15.5459 7.89671 15.4529 7.78556 15.2674C7.7274 15.1685 7.69509 15.0386 7.68863 14.8797H8.07635C8.07635 14.9598 8.08928 15.0264 8.11448 15.0787C8.1623 15.1756 8.24954 15.2241 8.3762 15.2241C8.4531 15.2241 8.52095 15.1976 8.57846 15.1446C8.63597 15.091 8.66441 15.0154 8.66441 14.9152C8.66441 14.7827 8.61077 14.6949 8.50415 14.6509C8.4434 14.6257 8.34712 14.6128 8.21658 14.6128V14.3297C8.34453
                                         14.3278 8.43436 14.3155 8.48476 14.2916C8.54421 14.2651 8.57588 14.2134 8.59526 14.1501C8.60431 14.1204 8.61659 14.0939 8.61659 14.0558C8.61659 13.9795 8.59397 13.9175 8.55003 13.869C8.50479 13.8212 8.44211 13.7966 8.36133 13.7966C8.26828 13.7966 8.19978 13.8263 8.15584 13.8858C8.1119 13.9446 8.09057 14.0234 8.09316 14.123H7.72482C7.72805 14.0234 7.74614 13.9285 7.77651 13.8393C7.80882 13.7604 7.85923 13.6887 7.92837 13.6215C7.98007 13.5743 8.04146 13.5388 8.1119 13.5136C8.18298 13.4884 8.27022 13.4761 8.37361 13.4761C8.56554 13.4761 8.72063 13.5259 8.83824 13.6247C8.94551 13.7152 8.99656 13.8367 9.0069 13.9827C9.00884 13.9989 9.0153 14.0099 9.0153 14.0254ZM8.25212 19.2293C8.22111 19.1686 8.16489 19.1369 8.08152 19.1369C7.98589 19.1369 7.91997 19.177 7.88378 19.2565C7.86504 19.2978 7.85535 19.3495 7.85535 19.4077V20.1967H7.50704V19.4077C7.50704 19.3288 7.49864 19.2713 7.48249 19.2364C7.45341 19.1718 7.39654 19.1408 7.31124 19.1408C7.21237 19.1408 7.14646 19.1725 7.11156 19.2364C7.09282 19.2726 7.08442 19.3275 7.08442 19.3993V20.1961H6.73288V18.8739H7.06956V19.0671C7.11221 18.9986 7.15292 18.9495 7.19105 18.9204C7.25825 18.8687 7.34549 18.8422 7.45211 18.8422C7.55292 18.8422 7.63564 18.8636 7.69767 18.9088C7.74808 18.9495 7.78621 19.0032 7.81141 19.0684C7.85729 18.9902 7.91351 18.934 7.98007 18.8965C8.05115 18.8597 8.13064 18.8422 8.21852 18.8422C8.27733 18.8422 8.33484 18.8539 8.39106 18.8758C8.44793 18.8991 8.49898 18.9385 8.5455 18.9954C8.58234 19.0419 8.60819 19.0981 8.62047 19.166C8.62887 19.2099 8.63274 19.2752 8.63274 19.3618L8.63016 20.1967H8.27539V19.3528C8.27733 19.3036 8.26828 19.2623 8.25212 19.2293ZM24.377 13.8955C24.3305 13.8393 24.262 13.8108
                                          24.1754 13.8108C24.0552 13.8108 23.9738 13.8561 23.9305 13.9453C23.906 13.9976 23.8905 14.0797 23.8859 14.1915H23.5021C23.5085 14.0209 23.5402 13.8826 23.5958 13.7772C23.7011 13.5763 23.8879 13.4767 24.1567 13.4767C24.3693 13.4767 24.5386 13.5349 24.6646 13.6532C24.79 13.7708 24.8527 13.9265 24.8527 14.121C24.8527 14.2696 24.8081 14.4021 24.7195 14.5178C24.6601 14.5947 24.5651 14.68 24.432 14.7743L24.2743 14.8868C24.1754 14.9566 24.1069 15.0083 24.0707 15.0386C24.0346 15.0703 24.0035 15.1065 23.9783 15.1485H24.8552V15.4968H23.4801C23.4827 15.3527 23.5144 15.2209 23.5719 15.102C23.6287 14.9676 23.7612 14.826 23.9719 14.6761C24.1528 14.5462 24.2717 14.4525 24.3254 14.3957C24.4068 14.3084 24.4481 14.2121 24.4481 14.1081C24.4481 14.0222 24.4236 13.9517 24.377 13.8955ZM23.5079 18.8998C23.6003 18.9398 23.6778 19.0057 23.7367 19.0956C23.7916 19.1744 23.8265 19.2662 23.8433 19.3689C23.8523 19.4309 23.8568 19.5182 23.8536 19.6326H22.8888C22.894 19.7644 22.9405 19.8587 23.0278 19.9124C23.0807 19.9453 23.1441 19.9621 23.219 19.9621C23.2979 19.9621 23.3618 19.9421 23.4116 19.9014C23.4387 19.8801 23.462 19.849 23.4833 19.809H23.8362C23.8265 19.8878 23.7845 19.9673 23.7082 20.0487C23.5893 20.1773 23.4232 20.2419 23.21 20.2419C23.0342 20.2419 22.8778 20.1877 22.7434 20.0791C22.609 19.9705 22.5418 19.7941 22.5418 19.5492C22.5418 19.3198 22.6026 19.144 22.724 19.0212C22.8455 18.8998 23.0038 18.8384 23.1984 18.8384C23.3127 18.8377 23.4168 18.8584 23.5079 18.8998ZM22.8869 15.4955H22.4817V14.11H22.01V13.8412C22.1347 13.836 22.2219 13.827 22.271 13.816C22.3505 13.7986 22.4151 13.7637 22.4643 13.7113C22.4992 13.6751 22.5244 13.6273 22.5418 13.5672C22.5521 13.531
                                          22.5567 13.5045 22.5567 13.4871H22.8869V15.4955ZM27.4369 14.6503C27.3761 14.6251 27.2798 14.6121 27.1493 14.6121V14.3291C27.2766 14.3272 27.3671 14.3149 27.4175 14.291C27.5054 14.2516 27.5493 14.174 27.5493 14.0551C27.5493 13.9789 27.5267 13.9168 27.4821 13.8684C27.4375 13.8205 27.3742 13.796 27.294 13.796C27.2003 13.796 27.1325 13.8257 27.0886 13.8852C27.0453 13.944 27.0233 14.0228 27.0259 14.1223H26.6582C26.6608 14.0228 26.6789 13.9278 26.7092 13.8386C26.7409 13.7598 26.7926 13.6881 26.8611 13.6209C26.9128 13.5737 26.9742 13.5381 27.0446 13.5129C27.1157 13.4877 27.2029 13.4755 27.3057 13.4755C27.4976 13.4755 27.6527 13.5252 27.7716 13.6241C27.8886 13.723 27.9474 13.8561 27.9474 14.0241C27.9474 14.1423 27.9112 14.2425 27.842 14.3233C27.7974 14.375 27.7509 14.4092 27.7031 14.4273C27.7399 14.4273 27.791 14.4583 27.8588 14.5204C27.9596 14.6141 28.0094 14.7414 28.0094 14.9029C28.0094 15.0722 27.9506 15.2215 27.833 15.3508C27.7154 15.4794 27.5409 15.544 27.3102 15.544C27.0265 15.544 26.8281 15.4509 26.7183 15.2648C26.6595 15.1666 26.6278 15.0367 26.622 14.8771H27.0091C27.0091 14.9579 27.022 15.0238 27.0485 15.0768C27.0957 15.1737 27.1835 15.2222 27.3089 15.2222C27.3858 15.2222 27.4537 15.1957 27.5112 15.1427C27.5687 15.089 27.5978 15.0134 27.5978 14.9133C27.5971 14.7827 27.5428 14.6949 27.4369 14.6503ZM29.6068 14.7543V15.0632H29.3787V15.4955H28.9923V15.0632H28.1981V14.7181L28.9361 13.4994H29.3807V14.7543H29.6068ZM30.6802 14.6037C30.633 14.5333 30.5581 14.4978 30.456 14.4978C30.4081 14.4978 30.3661 14.5036 30.3319 14.5159C30.2699 14.5378 30.2227 14.5792 30.191 14.6386L29.8375 14.6218L29.9784 13.5123H31.0841V13.8477H30.2627L30.191 14.2865C30.2524 14.2464 30.2989 14.2199 30.3332 14.2076C30.3913 14.1863
                                           30.4598 14.176 30.5419 14.176C30.7086 14.176 30.8527 14.2315 30.9762 14.3433C31.0996 14.4551 31.161 14.6167 31.161 14.8306C31.161 15.016 31.1015 15.1815 30.9833 15.3281C30.865 15.4748 30.6867 15.5466 30.4489 15.5466C30.2576 15.5466 30.1005 15.4955 29.9784 15.3934C29.8563 15.2907 29.7865 15.1459 29.7729 14.9572H30.1658C30.1813 15.0432 30.2117 15.1091 30.2563 15.1556C30.3009 15.2021 30.3655 15.2254 30.4495 15.2254C30.5477 15.2254 30.622 15.1905 30.6737 15.122C30.7241 15.0535 30.75 14.9663 30.75 14.8622C30.7526 14.7614 30.7274 14.6742 30.6802 14.6037ZM32.7132 13.9924H32.3203C32.3203 13.9601 32.3074 13.9246 32.2822 13.8858C32.2402 13.8231 32.1755 13.7915 32.0896 13.7915C31.961 13.7915 31.8686 13.8632 31.8149 14.0073C31.7859 14.0868 31.7652 14.2037 31.7542 14.3595C31.8027 14.3013 31.8595 14.2587 31.9242 14.2322C31.9888 14.205 32.0637 14.1915 32.1465 14.1915C32.3235 14.1915 32.4702 14.2522 32.5846 14.3737C32.6983 14.4952 32.7558 14.6496 32.7558 14.837C32.7558 15.0251 32.6996 15.1899 32.5878 15.3333C32.476 15.4768 32.3028 15.5485 32.0663 15.5485C31.8137 15.5485 31.6269 15.4425 31.5073 15.2312C31.413 15.0658 31.3671 14.8532 31.3671 14.5908C31.3671 14.4377 31.3742 14.3129 31.3865 14.2167C31.4091 14.0454 31.4544 13.9039 31.5209 13.7895C31.5784 13.6926 31.6534 13.6144 31.7464 13.5556C31.8389 13.4961 31.95 13.4664 32.0799 13.4664C32.266 13.4664 32.4153 13.5142 32.5258 13.6099C32.6363 13.7062 32.6983 13.8335 32.7132 13.9924ZM6.80267 13.4767C7.01592 13.4767 7.18458 13.5349 7.31059 13.6532C7.43661 13.7708 7.49929 13.9265 7.49929 14.121C7.49929 14.2696 7.45535 14.4021 7.36617 14.5178C7.30866 14.5934 7.21431 14.6774 7.08377 14.7698C7.08183 14.7711 7.08054 14.7724
                                            7.0786 14.7737L6.92028 14.8861C6.82141 14.9559 6.75356 15.0076 6.71673 15.038C6.68054 15.0697 6.64952 15.1058 6.62432 15.1479H7.50123V15.4962H6.12544C6.12867 15.3617 6.1584 15.2396 6.2088 15.1265C6.21203 15.1181 6.21397 15.1091 6.21785 15.1007C6.27407 14.9663 6.40654 14.8247 6.61721 14.6748C6.79879 14.5449 6.91705 14.4512 6.97004 14.3944C7.05211 14.3071 7.09347 14.2108 7.09347 14.1068C7.09347 14.0222 7.06956 13.9511 7.02303 13.8948C6.9765 13.8386 6.90865 13.8102 6.82141 13.8102C6.70122 13.8102 6.61979 13.8554 6.5765 13.9446C6.5513 13.9969 6.53643 14.079 6.53256 14.1908H6.14806C6.15452 14.0202 6.18554 13.8819 6.24111 13.7766C6.28699 13.6894 6.35549 13.6293 6.43239 13.5801C6.46858 13.5575 6.51188 13.5452 6.55388 13.5304C6.62949 13.5052 6.70445 13.4767 6.80267 13.4767ZM3.92832 20.1967H3.58001V18.4054H3.97226L4.6831 19.6545V18.4054H5.03205V20.1967H4.65789L3.92961 18.9256V20.1967H3.92832ZM5.12898 15.4955V14.1133V14.11H4.65596V13.8412C4.78067 13.836 4.86727 13.827 4.91703 13.816C4.99651 13.7986 5.06113 13.7637 5.11024 13.7113C5.14449 13.6751 5.16969 13.6273 5.18714 13.5672C5.19748 13.531 5.20265 13.5045 5.20265 13.4871H5.53287V13.9491V15.4031V15.4962H5.30475L5.12898 15.4955ZM3.83074 9.21886V7.94065H5.11412V9.24794H3.83397C3.83397 9.2376 3.83074 9.22855 3.83074 9.21886ZM5.11412 10.9274C4.60232 10.7743 4.18358 10.4059 3.97549 9.92064H5.11412V10.9274ZM5.78683 9.92064H6.89637V11.0095H5.78683V9.92064ZM7.56908 9.92064H8.70835C8.50027 10.4059 8.08088 10.7743 7.56908 10.9274V9.92064ZM8.85246 9.21886C8.85246 9.2292 8.84987 9.2376 8.84987 9.24794H7.57037V7.94065H8.8531L8.85246 9.21886ZM7.23305
                                             7.2673L6.89637 7.26794V9.24729H5.78683V5.98715H7.0618C7.87021 5.98715 8.54744 6.52932 8.76909 7.26665L7.23305 7.2673ZM5.11412 7.2673H3.9141C4.08729 6.69152 4.5377 6.24241 5.11412 6.06987V7.2673ZM5.45467 19.491C5.52382 19.4516 5.62657 19.4232 5.76098 19.4064L5.87988 19.3915C5.9445 19.3831 5.98974 19.3741 6.01817 19.3612C6.06793 19.3398 6.09313 19.3069 6.09313 19.2636C6.09313 19.2086 6.07439 19.1718 6.03626 19.1505C5.99749 19.1298 5.94192 19.1188 5.86825 19.1188C5.78553 19.1188 5.72608 19.1401 5.69183 19.1802C5.66663 19.2099 5.65112 19.2507 5.64272 19.3017H5.30863C5.31574 19.186 5.3487 19.091 5.40621 19.0167C5.49797 18.9004 5.65629 18.8416 5.87923 18.8416C6.02463 18.8416 6.15388 18.8707 6.26761 18.9275C6.3807 18.9857 6.43756 19.0943 6.43756 19.2539V19.8613C6.43756 19.9027 6.43821 19.9544 6.44015 20.0145C6.44273 20.0591 6.44919 20.0907 6.46083 20.1069C6.47246 20.1224 6.48861 20.1366 6.51188 20.1476V20.198H6.13514C6.12415 20.1709 6.11769 20.1463 6.11381 20.1224C6.10993 20.0991 6.1067 20.0726 6.10412 20.0423C6.0563 20.0946 6.00008 20.1385 5.93804 20.1747C5.86308 20.218 5.77843 20.24 5.68343 20.24C5.56259 20.24 5.46307 20.2051 5.38424 20.1379C5.3054 20.0694 5.26663 19.9725 5.26663 19.8471C5.26533 19.6817 5.32866 19.5634 5.45467 19.491Z" fill="black"/>
    <path d="M23.1499 8.21161C23.6345 8.76024 24.3363 9.11307 25.1247 9.11307C25.6888 9.11307 26.2097 8.93278 26.64 8.62971H26.7253H27.168H27.2274H27.6216H27.7528C27.7612 8.62325 27.7664 8.6142 27.7754 8.60774C27.9551 8.46363 28.1199 8.30208 28.2607 8.1192H27.9861H27.6061H27.1738H27.1706H26.7344H26.3228C26.2446 7.99319 26.1728 7.86136 26.1101 7.72437H26.4908H26.874H27.4394H27.822H28.1948H28.5147C28.6013 7.56217 28.6724 7.39157 28.7273 7.21321H28.3538H28.0029H27.652H26.6336H26.2814H25.9311C25.9202 7.1725 25.9034 7.13308 25.8943 7.09172C25.8691 6.98704 25.8588 6.87912 25.8458 6.77185H26.1825H26.5192H26.6769H27.7431H28.0798H28.4165H28.8288C28.8469 6.64002 28.8688 6.50819 28.8688 6.3712C28.8688 6.33372 28.8591 6.29882 28.8565 6.2607H28.4268H28.0901H27.9292H27.7535H26.4837H26.147H25.8103C25.8148 6.11465 25.8316 5.97184 25.8542 5.83161H26.1909H26.5276H27.6876H28.0397H28.3816H28.812C28.7777 5.65455 28.726 5.48395 28.662 5.32046H28.231H27.8808H27.5027H26.6833H26.6698H26.3312H25.9809C26.032 5.16731 26.0901 5.02126 26.1612 4.87909H26.5412H26.9237H27.2333H27.6455H27.7522H28.0249H28.4391C28.3919 4.8022 28.3292 4.73757 28.2775 4.6652C28.2039 4.56439 28.138 4.45712 28.0507 4.36729H27.6798H27.3896H27.2475H26.9102H26.7253H26.4778C26.5082 4.32723 26.5425 4.28975 26.5735 4.25098C26.1567 3.97828 25.6604 3.81543 25.126 3.81543C23.6649 3.81543 22.4765 5.00381 22.4765 6.46425C22.4765 6.65165 22.4972 6.83324 22.5347 7.00901C22.629 7.46653 22.8507 7.87429 23.1499 8.21161Z" fill="black"/>
</svg>
